<?xml version="1.0"?>
<svg version="1.1" xmlns="http://www.w3.org/2000/svg" xmlns:xlink="http://www.w3.org/1999/xlink" width="640" height="480">
    <desc iVinci="yes" version="4.6" gridStep="20" showGrid="yes" snapToGrid="no" codePlatform="0"/>
    <g id="Layer1" name="Layer 1" opacity="1">
        <g id="Shape1">
            <desc shapeID="1" type="0" basicInfo-basicType="4" basicInfo-roundedRectRadius="12" basicInfo-polygonSides="6" basicInfo-starPoints="5" bounding="rect(-22,-17.5,44,35)" text="" font-familyName="Bradley Hand" font-pixelSize="40" font-bold="0" font-underline="0" font-alignment="1" strokeStyle="0" markerStart="0" markerEnd="0" shadowEnabled="0" shadowOffsetX="0" shadowOffsetY="2" shadowBlur="4" shadowOpacity="160" blurEnabled="0" blurRadius="4" transform="matrix(1.07905,0,0,1.05771,259.174,139.01)" pers-center="0,0" pers-size="0,0" pers-start="0,0" pers-end="0,0" locked="0" mesh="" flag=""/>
            <path id="shapePath1" d="M235.434,139.01 C235.434,128.787 246.063,120.5 259.174,120.5 C272.284,120.5 282.913,128.787 282.913,139.01 C282.913,149.233 272.284,157.52 259.174,157.52 C246.063,157.52 235.434,149.233 235.434,139.01 Z" style="stroke:none;fill-rule:evenodd;fill:#fcf553;fill-opacity:1;"/>
        </g>
        <g id="Shape2">
            <desc shapeID="2" type="0" basicInfo-basicType="0" basicInfo-roundedRectRadius="12" basicInfo-polygonSides="6" basicInfo-starPoints="5" bounding="rect(-0.5,-82.5,1,165)" text="" font-familyName="Bradley Hand" font-pixelSize="40" font-bold="0" font-underline="0" font-alignment="1" strokeStyle="0" markerStart="0" markerEnd="0" shadowEnabled="0" shadowOffsetX="0" shadowOffsetY="2" shadowBlur="4" shadowOpacity="160" blurEnabled="0" blurRadius="4" transform="matrix(1,0,0,1,264,230)" pers-center="0,0" pers-size="0,0" pers-start="0,0" pers-end="0,0" locked="0" mesh="" flag=""/>
            <path id="shapePath2" d="M263.5,147.5 L264.5,312.5 " style="stroke:none;fill-rule:evenodd;fill:#fcf553;fill-opacity:1;"/>
        </g>
        <g id="Shape3">
            <desc shapeID="3" type="0" basicInfo-basicType="0" basicInfo-roundedRectRadius="12" basicInfo-polygonSides="6" basicInfo-starPoints="5" bounding="rect(0,0,0,0)" text="" font-familyName="Bradley Hand" font-pixelSize="40" font-bold="0" font-underline="0" font-alignment="1" strokeStyle="0" markerStart="0" markerEnd="0" shadowEnabled="0" shadowOffsetX="0" shadowOffsetY="2" shadowBlur="4" shadowOpacity="160" blurEnabled="0" blurRadius="4" transform="matrix(1,0,0,1,236.5,150.5)" pers-center="0,0" pers-size="0,0" pers-start="0,0" pers-end="0,0" locked="0" mesh="" flag=""/>
            <path id="shapePath3" d="M236.5,150.5 Z" style="stroke:none;fill-rule:evenodd;fill:#fcf553;fill-opacity:1;"/>
        </g>
        <g id="Shape4">
            <desc shapeID="4" type="0" basicInfo-basicType="0" basicInfo-roundedRectRadius="12" basicInfo-polygonSides="6" basicInfo-starPoints="5" bounding="rect(0,0,0,0)" text="" font-familyName="Bradley Hand" font-pixelSize="40" font-bold="0" font-underline="0" font-alignment="1" strokeStyle="0" markerStart="0" markerEnd="0" shadowEnabled="0" shadowOffsetX="0" shadowOffsetY="2" shadowBlur="4" shadowOpacity="160" blurEnabled="0" blurRadius="4" transform="matrix(1,0,0,1,249.5,134.5)" pers-center="0,0" pers-size="0,0" pers-start="0,0" pers-end="0,0" locked="0" mesh="" flag=""/>
            <path id="shapePath4" d="M249.5,134.5 Z" style="stroke:none;fill-rule:evenodd;fill:#fcf553;fill-opacity:1;"/>
        </g>
        <g id="Shape5">
            <desc shapeID="5" type="0" basicInfo-basicType="0" basicInfo-roundedRectRadius="12" basicInfo-polygonSides="6" basicInfo-starPoints="5" bounding="rect(0,0,0,0)" text="" font-familyName="Bradley Hand" font-pixelSize="40" font-bold="0" font-underline="0" font-alignment="1" strokeStyle="0" markerStart="0" markerEnd="0" shadowEnabled="0" shadowOffsetX="0" shadowOffsetY="2" shadowBlur="4" shadowOpacity="160" blurEnabled="0" blurRadius="4" transform="matrix(1,0,0,1,386.5,159.5)" pers-center="0,0" pers-size="0,0" pers-start="0,0" pers-end="0,0" locked="0" mesh="" flag=""/>
            <path id="shapePath5" d="M386.5,159.5 Z" style="stroke:none;fill-rule:evenodd;fill:#fcf553;fill-opacity:1;"/>
        </g>
        <g id="Shape6">
            <desc shapeID="6" type="2" basicInfo-basicType="0" basicInfo-roundedRectRadius="12" basicInfo-polygonSides="6" basicInfo-starPoints="5" bounding="rect(-31.1847,-25.86,62.3694,51.72)" text="df" font-familyName="Bradley Hand" font-pixelSize="40" font-bold="0" font-underline="0" font-alignment="1" strokeStyle="0" markerStart="0" markerEnd="0" shadowEnabled="0" shadowOffsetX="0" shadowOffsetY="2" shadowBlur="4" shadowOpacity="160" blurEnabled="0" blurRadius="4" transform="matrix(1,0,0,1,259.174,166.319)" pers-center="0,0" pers-size="0,0" pers-start="0,0" pers-end="0,0" locked="0" mesh="" flag=""/>
            <path id="shapePath6" d="M260.051,172.58 L259.571,174.26 L259.251,174.74 C258.825,175.38 258.411,175.7 258.011,175.7 C257.691,175.7 257.265,175.473 256.731,175.02 L255.931,173.86 L255.571,173.14 L255.411,172.42 L255.051,171.22 L255.051,169.46 L254.931,167.94 L255.051,167.1 L254.971,166.86 L253.971,168.26 L253.851,168.26 L253.811,168.38 L253.131,169.46 L252.011,170.66 L251.171,171.82 L250.291,172.66 C250.051,173.087 249.771,173.46 249.451,173.78 L248.651,174.34 L248.171,174.98 L247.291,175.26 L246.931,175.7 L246.051,175.86 L245.331,176.3 L245.211,176.26 L245.131,176.46 L243.891,176.3 L242.411,175.26 C242.011,174.807 241.758,174.313 241.651,173.78 C241.705,173.753 241.758,173.707 241.811,173.64 C241.865,173.573 241.905,173.527 241.931,173.5 C241.905,173.473 241.758,173.407 241.491,173.3 L241.131,172.5 L241.331,172.22 L241.131,171.74 L241.331,171.18 L241.251,170.46 L241.531,169.3 L241.531,168.06 L241.811,167.7 L241.811,166.86 L242.091,166.34 L242.171,165.74 L242.251,165.66 L242.251,165.14 L242.651,164.5 L242.731,163.94 L242.971,163.54 L243.091,163.3 L243.251,162.34 L243.531,161.5 L243.731,161.3 L243.811,160.78 L244.331,160.22 C244.385,160.087 244.505,159.807 244.691,159.38 L245.691,158.94 L246.331,158.26 L248.171,157.74 C248.465,157.74 248.691,157.727 248.851,157.7 L249.131,157.86 L249.211,157.54 L250.131,157.46 L250.451,157.58 L250.731,157.54 L250.971,157.74 L251.731,157.78 L251.891,157.66 L252.091,157.82 L252.491,157.86 L252.491,158.14 L252.651,158.26 L253.451,158.42 L254.051,159.1 L254.851,159.7 L255.051,160.1 L255.091,160.14 L255.251,159.58 L255.491,159.06 L255.411,158.14 L255.571,156.46 L255.331,155.82 L255.651,155.34 L255.491,154.9 L255.611,153.78 L255.491,152.82 L255.131,152.54 L255.691,151.9 L255.691,151.46 C255.691,151.007 255.518,150.513 255.171,149.98 L255.411,149.98 L255.851,149.34 C256.251,149.26 256.611,149.22 256.931,149.22 C257.305,149.22 257.611,149.3 257.851,149.46 C258.278,149.593 258.491,150.233 258.491,151.38 L258.291,151.38 L258.251,151.54 L258.611,151.86 L258.371,152.5 L258.731,153.26 L258.531,153.5 C258.611,153.687 258.651,153.873 258.651,154.06 C258.651,154.247 258.611,154.447 258.531,154.66 L258.731,154.9 C258.785,155.007 258.811,155.18 258.811,155.42 C258.811,155.713 258.745,155.98 258.611,156.22 C258.478,157.9 258.358,158.94 258.251,159.34 C258.278,159.42 258.291,159.54 258.291,159.7 C258.291,159.913 258.251,160.14 258.171,160.38 L258.171,160.62 C258.171,160.94 258.118,161.3 258.011,161.7 L257.891,162.9 L257.691,163.22 L257.811,163.58 L257.611,164.18 L257.811,164.7 L257.491,165.94 L257.691,166.86 L257.571,167.38 L257.651,168.18 C257.731,168.367 257.771,168.54 257.771,168.7 C257.771,168.833 257.758,168.94 257.731,169.02 L257.971,169.26 L257.651,170.06 L257.971,170.9 L257.851,171.14 L257.971,171.38 L257.851,171.62 L257.971,171.74 L258.331,172.06 L259.011,172.14 L260.051,172.58 M254.091,162.82 L253.931,162.74 C253.745,162.633 253.578,162.46 253.431,162.22 C253.285,161.98 253.145,161.74 253.011,161.5 C252.745,161.42 252.518,161.247 252.331,160.98 L252.091,160.98 L251.371,160.54 L250.451,160.34 L249.571,160.46 L248.651,160.7 L248.371,160.46 L248.051,160.58 L248.051,160.74 L247.691,160.82 C247.451,161.247 247.078,161.62 246.571,161.94 L246.251,162.62 L245.931,162.86 L245.651,163.5 L245.531,164.82 L245.171,165.14 L245.171,165.86 L244.771,166.14 L244.851,167.1 L244.171,168.42 L244.051,169.06 L243.971,170.1 L244.211,170.54 L243.931,170.98 L244.171,171.26 L243.771,171.98 L243.971,172.34 L244.131,172.82 L244.371,172.98 L244.651,172.98 L245.011,172.66 L245.331,172.7 L246.011,172.42 L246.091,172.18 L246.851,171.9 L246.931,171.66 L247.411,171.38 L247.411,171.3 L248.411,170.26 L248.891,170.06 L249.131,169.54 L249.651,169.46 L250.291,168.74 L250.171,168.66 L250.451,168.38 L250.851,167.54 L251.211,167.18 L251.411,166.3 L252.051,166.1 L252.491,165.46 L252.651,165.34 L252.651,164.62 L253.251,164.34 L254.091,162.82 M282.043,151.58 C282.043,152.113 281.723,152.647 281.083,153.18 L280.763,152.98 L280.123,153.34 L279.323,151.78 C279.27,151.38 279.163,151.047 279.003,150.78 L278.763,150.9 L278.083,150.54 L277.843,150.5 L277.323,150.82 L276.483,150.58 L276.203,150.7 C275.963,150.967 275.723,151.1 275.483,151.1 C275.376,151.1 275.283,151.087 275.203,151.06 L275.203,151.46 C274.936,151.887 274.603,152.407 274.203,153.02 C274.176,153.287 274.083,153.78 273.923,154.5 L273.563,154.74 L273.403,155.18 L273.203,155.54 L273.403,156.34 L272.923,157.06 L272.763,157.66 L272.603,157.98 L272.643,158.54 L272.083,159.98 L272.163,160.66 C272.136,160.767 271.976,161.14 271.683,161.78 L271.643,161.94 C271.91,161.833 272.136,161.767 272.323,161.74 L272.563,161.78 C272.616,161.753 272.736,161.713 272.923,161.66 L273.043,161.66 C273.043,161.66 273.496,161.687 274.403,161.74 L274.523,161.66 C274.843,161.607 275.03,161.58 275.083,161.58 C275.35,161.58 275.643,161.647 275.963,161.78 C276.283,161.7 276.563,161.66 276.803,161.66 C277.016,161.66 277.203,161.7 277.363,161.78 L277.723,161.78 L278.243,161.9 C279.203,161.927 279.683,162.313 279.683,163.06 C279.683,163.273 279.643,163.527 279.563,163.82 L277.763,164.34 L276.723,164.18 C276.43,164.26 275.936,164.353 275.243,164.46 L275.043,164.26 C274.856,164.447 274.603,164.54 274.283,164.54 L273.843,164.54 L272.723,165.06 L272.163,164.78 L271.963,164.78 C271.75,165.047 271.483,165.22 271.163,165.3 L271.203,165.54 L271.043,166.1 L271.283,166.78 L270.763,167.82 L270.883,169.42 L270.683,169.98 L270.803,170.54 L270.403,171.42 L270.523,171.9 C270.55,171.927 270.563,171.993 270.563,172.1 C270.563,172.127 270.51,172.413 270.403,172.96 C270.296,173.507 270.243,174.047 270.243,174.58 L270.243,174.94 C270.27,174.967 270.416,175.14 270.683,175.46 L270.403,176.14 L270.683,176.94 L270.483,177.58 L270.923,179.54 L271.043,181.7 L271.683,182.5 L271.323,183.38 C271.643,183.94 271.803,184.393 271.803,184.74 L271.803,184.86 C271.803,184.913 271.816,184.98 271.843,185.06 C271.843,185.167 271.843,185.233 271.843,185.26 C271.843,186.273 271.256,186.807 270.083,186.86 L269.763,186.22 L269.283,185.94 L269.203,185.22 L268.403,182.98 L268.403,182.54 C268.296,182.06 268.243,181.78 268.243,181.7 C268.243,181.567 268.256,181.473 268.283,181.42 L268.163,180.74 L268.283,180.06 L268.163,179.62 L268.163,178.74 L267.763,176.22 L267.843,176.14 L267.763,175.7 L267.843,175.14 L267.563,174.62 L267.803,174.18 L267.803,172.1 L268.003,171.86 L268.003,170.42 L268.123,170.1 L268.003,168.86 L268.163,168.38 C268.216,167.927 268.376,166.913 268.643,165.34 L268.483,165.34 L267.963,165.18 L267.363,165.18 L266.243,165.34 L265.563,165.18 L264.403,165.42 L264.003,165.34 C263.87,165.367 263.71,165.38 263.523,165.38 C262.35,164.847 261.723,164.433 261.643,164.14 L261.443,163.46 C261.79,162.42 262.27,161.9 262.883,161.9 C262.91,161.9 263.363,161.993 264.243,162.18 L266.563,162.26 L267.683,162.02 L268.643,162.06 L269.003,162.1 L269.123,161.58 L269.203,160.42 L269.403,159.94 L269.283,159.14 C269.283,158.847 269.39,158.593 269.603,158.38 L269.563,157.94 L270.003,157.46 L270.203,156.26 L270.363,156.06 L270.243,155.54 C270.563,155.167 270.723,154.86 270.723,154.62 C270.696,154.46 270.683,154.38 270.683,154.38 C270.683,154.593 270.883,153.98 271.283,152.54 L271.563,152.34 L271.603,151.46 L271.683,151.66 L271.683,151.54 C271.683,151.087 271.87,150.753 272.243,150.54 L272.483,150.18 L272.963,149.02 L273.043,149.02 C273.336,149.02 273.483,148.847 273.483,148.5 L273.483,148.34 L274.603,147.94 L274.923,147.94 C275.27,147.833 275.63,147.78 276.003,147.78 L276.283,147.78 L276.483,147.7 L277.363,147.5 L278.403,147.74 C278.456,147.767 278.563,147.807 278.723,147.86 C278.99,147.753 279.176,147.7 279.283,147.7 C279.656,147.7 280.003,147.98 280.323,148.54 L280.883,148.94 L281.283,149.74 L281.883,150.34 L282.043,151.46 L282.043,151.58 Z" style="stroke:none;fill-rule:nonzero;fill:#000000;fill-opacity:1;"/>
        </g>
        <g id="Shape7">
            <desc shapeID="7" type="0" basicInfo-basicType="0" basicInfo-roundedRectRadius="12" basicInfo-polygonSides="6" basicInfo-starPoints="5" bounding="rect(-10,-5.54858,20,11.0972)" text="" font-familyName="Bradley Hand" font-pixelSize="40" font-bold="0" font-underline="0" font-alignment="1" strokeStyle="0" markerStart="0" markerEnd="0" shadowEnabled="0" shadowOffsetX="0" shadowOffsetY="2" shadowBlur="4" shadowOpacity="160" blurEnabled="0" blurRadius="4" transform="matrix(1,0,0,1,246.5,115.951)" pers-center="0,0" pers-size="0,0" pers-start="0,0" pers-end="0,0" locked="0" mesh="" flag=""/>
            <path id="shapePath7" d="M256.5,110.5 C247.114,109.47 241.496,116.864 236.5,121.5 " style="stroke:none;fill-rule:evenodd;fill:#fc2d38;fill-opacity:1;"/>
        </g>
        <g id="Shape8">
            <desc shapeID="8" type="0" basicInfo-basicType="0" basicInfo-roundedRectRadius="12" basicInfo-polygonSides="6" basicInfo-starPoints="5" bounding="rect(-7.5,-6.5,15,13)" text="" font-familyName="Bradley Hand" font-pixelSize="40" font-bold="0" font-underline="0" font-alignment="1" strokeStyle="0" markerStart="0" markerEnd="0" shadowEnabled="0" shadowOffsetX="0" shadowOffsetY="2" shadowBlur="4" shadowOpacity="160" blurEnabled="0" blurRadius="4" transform="matrix(1,0,0,1,235,114)" pers-center="0,0" pers-size="0,0" pers-start="0,0" pers-end="0,0" locked="0" mesh="" flag=""/>
            <path id="shapePath8" d="M242.5,107.5 C236.91,110.987 228.799,114.371 227.5,120.5 " style="stroke:none;fill-rule:evenodd;fill:#fc2d38;fill-opacity:1;"/>
        </g>
        <g id="Shape9">
            <desc shapeID="9" type="0" basicInfo-basicType="0" basicInfo-roundedRectRadius="12" basicInfo-polygonSides="6" basicInfo-starPoints="5" bounding="rect(-156,0,312,0)" text="" font-familyName="Bradley Hand" font-pixelSize="40" font-bold="0" font-underline="0" font-alignment="1" strokeStyle="0" markerStart="0" markerEnd="0" shadowEnabled="0" shadowOffsetX="0" shadowOffsetY="2" shadowBlur="4" shadowOpacity="160" blurEnabled="0" blurRadius="4" transform="matrix(1,0,0,1,323.5,23.5)" pers-center="0,0" pers-size="0,0" pers-start="0,0" pers-end="0,0" locked="0" mesh="" flag=""/>
            <path id="shapePath9" d="M479.5,23.5 L167.5,23.5 " style="stroke:none;fill-rule:evenodd;fill:#fc2d38;fill-opacity:1;"/>
        </g>
        <g id="Shape10">
            <desc shapeID="10" type="0" basicInfo-basicType="0" basicInfo-roundedRectRadius="12" basicInfo-polygonSides="6" basicInfo-starPoints="5" bounding="rect(0,0,0,0)" text="" font-familyName="Bradley Hand" font-pixelSize="40" font-bold="0" font-underline="0" font-alignment="1" strokeStyle="0" markerStart="0" markerEnd="0" shadowEnabled="0" shadowOffsetX="0" shadowOffsetY="2" shadowBlur="4" shadowOpacity="160" blurEnabled="0" blurRadius="4" transform="matrix(1,0,0,1,274.5,127.5)" pers-center="0,0" pers-size="0,0" pers-start="0,0" pers-end="0,0" locked="0" mesh="" flag=""/>
            <path id="shapePath10" d="M274.5,127.5 Z" style="stroke:none;fill-rule:evenodd;fill:#fc2d38;fill-opacity:1;"/>
        </g>
    </g>
</svg>
